<svg width="81" height="80" viewBox="0 0 81 80" fill="none" xmlns="http://www.w3.org/2000/svg">
<ellipse cx="40.9375" cy="40" rx="40.0625" ry="40" fill="#443297"/>
<path d="M53.8879 35.7612C53.8879 35.3426 53.7205 34.9241 53.4192 34.6228L51.1424 32.346C50.841 32.0446 50.4225 31.8772 50.004 31.8772C49.5855 31.8772 49.1669 32.0446 48.8656 32.346L37.8834 43.3449L32.9616 38.4062C32.6602 38.1049 32.2417 37.9375 31.8232 37.9375C31.4046 37.9375 30.9861 38.1049 30.6848 38.4062L28.408 40.683C28.1067 40.9844 27.9392 41.4029 27.9392 41.8214C27.9392 42.24 28.1067 42.6585 28.408 42.9598L34.4683 49.0201L36.745 51.2969C37.0464 51.5982 37.4649 51.7656 37.8834 51.7656C38.302 51.7656 38.7205 51.5982 39.0218 51.2969L41.2986 49.0201L53.4192 36.8996C53.7205 36.5982 53.8879 36.1797 53.8879 35.7612Z" fill="white"/>
</svg>
